<?xml version="1.0" encoding="UTF-8" standalone="no"?><!DOCTYPE svg PUBLIC "-//W3C//DTD SVG 1.1//EN" "http://www.w3.org/Graphics/SVG/1.1/DTD/svg11.dtd"><svg width="100%" height="100%" viewBox="0 0 123 123" version="1.1" xmlns="http://www.w3.org/2000/svg" xmlns:xlink="http://www.w3.org/1999/xlink" xml:space="preserve" xmlns:serif="http://www.serif.com/" style="fill-rule:evenodd;clip-rule:evenodd;stroke-linejoin:round;stroke-miterlimit:2;"><path d="M93.973,95.518c-1.988,0.672 -4.055,1.008 -6.201,1.008c-2.865,0 -5.1,-0.929 -6.705,-2.786c-1.606,-1.857 -2.408,-3.935 -2.408,-6.233c0,-2.298 0.378,-4.895 1.133,-7.792c0.756,-2.896 1.574,-5.918 2.456,-9.067c2.393,-8.374 3.62,-14.261 3.683,-17.661c0,-1.448 -0.189,-2.566 -0.567,-3.353c-0.378,-0.787 -1.102,-1.181 -2.172,-1.181c-1.889,0 -3.904,1.133 -6.044,3.4c-2.141,2.267 -4.156,5.163 -6.044,8.689c-4.344,8.059 -6.643,15.929 -6.894,23.611l0.378,2.644c0.126,0.881 0.189,1.826 0.189,2.833c0,2.015 -0.992,3.856 -2.975,5.525c-1.983,1.668 -4.203,2.503 -6.658,2.503c-1.448,0 -2.518,-0.708 -3.211,-2.125c-0.693,-1.417 -1.039,-3.164 -1.039,-5.242c0,-2.078 0.472,-4.911 1.417,-8.5c0.944,-3.589 1.983,-7.398 3.117,-11.428c3.022,-10.641 4.565,-18.574 4.628,-23.8c0,-2.644 -0.331,-4.722 -0.992,-6.233c-0.661,-1.511 -1.936,-2.267 -3.825,-2.267c-3.4,0 -6.768,2.424 -10.105,7.272c-3.337,4.848 -6.328,12.372 -8.972,22.572c-0.693,2.644 -1.228,4.943 -1.606,6.894l-0.094,1.794c1.196,5.793 1.794,9.57 1.794,11.333c0,3.652 -1.291,6.107 -3.872,7.367c-1.196,0.567 -2.345,1.102 -3.447,1.606c-1.102,0.504 -2.282,0.756 -3.542,0.756c-3.148,0 -4.722,-3.006 -4.722,-9.019c0,-6.013 1.668,-17.771 5.005,-35.275c1.196,-6.296 1.794,-9.822 1.794,-10.578c0,-5.1 -1.291,-7.65 -3.872,-7.65c-0.881,0 -1.684,0.252 -2.408,0.756c-0.724,0.504 -1.448,1.039 -2.172,1.606c-0.724,0.567 -1.464,1.102 -2.219,1.606c-0.756,0.504 -1.621,0.756 -2.597,0.756c-0.976,0 -1.464,-0.85 -1.464,-2.55c0,-3.463 1.606,-6.296 4.817,-8.5c3.085,-2.267 6.831,-3.4 11.239,-3.4c5.667,0 9.004,2.644 10.011,7.933c0.252,1.574 0.441,3.243 0.567,5.005c4.659,-8.752 10.546,-13.128 17.661,-13.128c7.744,-0 12.183,3.715 13.317,11.144c0.378,2.141 0.535,4.439 0.472,6.894l0,0.756c4.093,-5.667 8.941,-8.5 14.544,-8.5c7.933,0 11.9,4.785 11.9,14.355c0,4.156 -0.645,9.019 -1.936,14.591c-1.291,5.572 -2.235,9.57 -2.833,11.994c-0.598,2.424 -0.897,4.297 -0.897,5.619c0,2.393 0.834,3.589 2.503,3.589c0.852,0 2.309,-0.855 4.369,-2.564c5.715,-4.931 6.995,-11.16 7.406,-13.363c0.511,-2.737 0.768,-5.514 0.768,-8.298c0,-24.958 -20.263,-45.221 -45.221,-45.221c-9.6,0 -18.505,2.998 -25.829,8.107c-1.842,-0.988 -4.102,-1.518 -6.801,-1.518c-3.277,0 -6.228,0.566 -8.86,1.678c10.181,-11.421 25.002,-18.617 41.49,-18.617c30.67,-0 55.571,24.9 55.571,55.571c0,1.322 0.405,7.1 -1.48,13.095c-2.071,6.588 -6.963,14.052 -20.379,20.686c-0.432,0.214 -0.816,0.305 -1.162,0.298Zm-59.975,1.87c7.609,5.816 17.116,9.272 27.424,9.272c6.069,0 12.059,-1.221 17.62,-3.574c2.397,-1.008 5.168,-0.041 6.418,2.239c0.039,0.055 0.071,0.114 0.103,0.173c0.691,1.262 0.816,2.758 0.341,4.116c-0.474,1.359 -1.502,2.453 -2.828,3.01c-6.836,2.884 -14.197,4.384 -21.654,4.384c-30.67,0 -55.571,-24.9 -55.571,-55.571c0,-7.787 1.605,-15.202 4.502,-21.932c0.004,-0.01 0.015,-0.017 0.026,-0.016c0.011,0.001 0.021,0.008 0.024,0.019c0.595,2.134 2.109,2.95 3.797,2.95c1.52,0 2.863,-0.408 4.04,-1.192c0.81,-0.54 1.603,-1.114 2.38,-1.721c0.685,-0.536 1.37,-1.042 2.055,-1.519l0.001,-0.001c0.01,-0.007 0.024,-0.006 0.033,0.003c0.009,0.009 0.011,0.022 0.004,0.033c-4.132,6.823 -6.511,14.824 -6.511,23.377c0,5.553 1.003,10.873 2.838,15.79c-0.648,4.928 -0.97,8.731 -0.97,11.41c0,8.112 3.076,11.62 7.323,11.62c1.644,0 3.184,-0.333 4.623,-0.991c1.112,-0.508 2.272,-1.049 3.479,-1.62l0.027,-0.013c0.162,-0.079 0.321,-0.162 0.477,-0.248Z" style="fill:#68e099;"/><rect id="Artboard1" x="0" y="0" width="122.88" height="122.88" style="fill:none;"/></svg>