<?xml version="1.0" encoding="UTF-8" standalone="no"?><!DOCTYPE svg PUBLIC "-//W3C//DTD SVG 1.1//EN" "http://www.w3.org/Graphics/SVG/1.1/DTD/svg11.dtd"><svg width="100%" height="100%" viewBox="0 0 402 184" version="1.1" xmlns="http://www.w3.org/2000/svg" xmlns:xlink="http://www.w3.org/1999/xlink" xml:space="preserve" xmlns:serif="http://www.serif.com/" style="fill-rule:evenodd;clip-rule:evenodd;stroke-linejoin:round;stroke-miterlimit:2;"><rect id="Artboard2" x="0" y="0" width="401.739" height="183.136" style="fill:none;"/><path d="M143.899,144.118c-3.09,1.044 -6.303,1.566 -9.64,1.566c-4.454,0 -7.928,-1.444 -10.424,-4.331c-2.496,-2.887 -3.744,-6.118 -3.744,-9.69c0,-3.573 0.587,-7.61 1.762,-12.113c1.175,-4.503 2.447,-9.201 3.817,-14.095c3.719,-13.018 5.628,-22.17 5.726,-27.456c0,-2.251 -0.294,-3.989 -0.881,-5.212c-0.587,-1.224 -1.713,-1.835 -3.377,-1.835c-2.936,0 -6.069,1.762 -9.397,5.286c-3.328,3.524 -6.46,8.026 -9.397,13.508c-6.754,12.529 -10.326,24.764 -10.718,36.705l0.587,4.111c0.196,1.37 0.294,2.839 0.294,4.405c0,3.132 -1.542,5.995 -4.625,8.589c-3.083,2.594 -6.534,3.891 -10.351,3.891c-2.251,0 -3.915,-1.101 -4.992,-3.303c-1.077,-2.202 -1.615,-4.919 -1.615,-8.149c0,-3.23 0.734,-7.635 2.202,-13.214c1.468,-5.579 3.083,-11.501 4.845,-17.765c4.698,-16.542 7.096,-28.875 7.194,-36.999c0,-4.111 -0.514,-7.341 -1.542,-9.69c-1.028,-2.349 -3.01,-3.524 -5.946,-3.524c-5.286,0 -10.522,3.768 -15.71,11.305c-5.188,7.537 -9.837,19.234 -13.948,35.09c-1.077,4.111 -1.909,7.684 -2.496,10.718l-0.147,2.79c1.86,9.005 2.79,14.878 2.79,17.619c0,5.677 -2.007,9.494 -6.02,11.452c-1.86,0.881 -3.646,1.713 -5.359,2.496c-1.713,0.783 -3.548,1.175 -5.506,1.175c-4.894,0 -7.341,-4.674 -7.341,-14.021c0,-9.348 2.594,-27.627 7.782,-54.838c1.86,-9.788 2.79,-15.269 2.79,-16.444c0,-7.928 -2.007,-11.893 -6.02,-11.893c-1.37,0 -2.618,0.392 -3.744,1.175c-1.126,0.783 -2.251,1.615 -3.377,2.496c-1.126,0.881 -2.276,1.713 -3.45,2.496c-1.175,0.783 -2.52,1.175 -4.038,1.175c-1.517,0 -2.276,-1.321 -2.276,-3.964c0,-5.383 2.496,-9.788 7.488,-13.214c4.796,-3.524 10.62,-5.286 17.472,-5.286c8.809,0 13.997,4.111 15.563,12.333c0.392,2.447 0.685,5.041 0.881,7.782c7.243,-13.605 16.395,-20.408 27.456,-20.408c12.039,-0 18.94,5.775 20.702,17.325c0.587,3.328 0.832,6.901 0.734,10.718l0,1.175c6.362,-8.809 13.899,-13.214 22.61,-13.214c12.333,0 18.499,7.439 18.499,22.317c0,6.46 -1.003,14.021 -3.01,22.684c-2.007,8.662 -3.475,14.878 -4.405,18.646c-0.93,3.768 -1.395,6.68 -1.395,8.736c0,3.719 1.297,5.579 3.891,5.579c1.325,0 3.589,-1.328 6.792,-3.985c8.885,-7.665 10.875,-17.349 11.514,-20.774c0.794,-4.254 1.194,-8.573 1.194,-12.9c0,-38.8 -31.5,-70.3 -70.3,-70.3c-14.924,-0 -28.767,4.66 -40.154,12.604c-2.863,-1.536 -6.376,-2.36 -10.572,-2.36c-5.094,0 -9.682,0.88 -13.773,2.608c15.827,-17.755 38.867,-28.942 64.5,-28.942c47.68,-0 86.39,38.71 86.39,86.39c0,2.056 0.63,11.038 -2.3,20.358c-3.219,10.241 -10.825,21.845 -31.681,32.158c-0.672,0.332 -1.268,0.474 -1.806,0.463Zm-93.237,2.907c11.83,9.042 26.609,14.415 42.634,14.415c9.434,0 18.747,-1.899 27.391,-5.556c3.726,-1.567 8.035,-0.064 9.977,3.481c0.06,0.086 0.11,0.178 0.161,0.27c1.075,1.962 1.268,4.287 0.531,6.399c-0.737,2.112 -2.335,3.813 -4.397,4.68c-10.627,4.483 -22.07,6.816 -33.663,6.816c-47.68,0 -86.39,-38.71 -86.39,-86.39c0,-12.106 2.495,-23.634 7,-34.096c0.007,-0.016 0.023,-0.026 0.041,-0.024c0.017,0.001 0.032,0.013 0.037,0.03c0.925,3.318 3.278,4.586 5.903,4.586c2.363,0 4.451,-0.634 6.281,-1.854c1.259,-0.84 2.493,-1.732 3.699,-2.676c1.065,-0.833 2.129,-1.62 3.194,-2.361l0.001,-0.001c0.016,-0.011 0.037,-0.009 0.051,0.004c0.014,0.013 0.017,0.035 0.007,0.051c-6.424,10.607 -10.123,23.046 -10.123,36.341c0,8.632 1.559,16.904 4.411,24.547c-1.008,7.661 -1.509,13.574 -1.509,17.738c0,12.612 4.782,18.065 11.385,18.065c2.556,0 4.951,-0.518 7.187,-1.541c1.729,-0.79 3.532,-1.63 5.409,-2.519l0.042,-0.02c0.252,-0.123 0.499,-0.251 0.741,-0.385Z" style="fill:#68e099;"/><g transform="matrix(2.058297,0,0,2.058297,-3577.467456,-1231.826433)"><g><g transform="matrix(50,0,0,50,1822.897421,671.019834)"><path d="M0.15,0.003c-0.067,0 -0.1,-0.062 -0.1,-0.187c0,-0.068 0.008,-0.13 0.025,-0.185c0.026,-0.085 0.055,-0.128 0.088,-0.128c0.019,-0 0.035,0.013 0.046,0.039c0.009,0.02 0.014,0.04 0.013,0.059c0,0.027 -0.008,0.074 -0.024,0.141c-0.015,0.059 -0.023,0.095 -0.023,0.109c0,0.014 0.004,0.024 0.01,0.029c0.007,0.005 0.015,0.008 0.025,0.008c0.01,0 0.022,-0.006 0.037,-0.019c0.015,-0.013 0.029,-0.026 0.044,-0.042c0.015,-0.015 0.028,-0.029 0.041,-0.041c0.012,-0.013 0.021,-0.019 0.025,-0.019c0.009,0 0.014,0.011 0.014,0.034c0,0.047 -0.024,0.092 -0.071,0.137c-0.047,0.044 -0.097,0.066 -0.15,0.066Zm0.041,-0.581c-0.018,-0.027 -0.027,-0.055 -0.027,-0.086c0,-0.031 0.005,-0.056 0.014,-0.077c0.01,-0.02 0.019,-0.035 0.028,-0.045c0.009,-0.01 0.019,-0.015 0.03,-0.015c0.019,-0 0.036,0.014 0.051,0.041c0.015,0.028 0.023,0.051 0.023,0.07c0,0.035 -0.012,0.062 -0.036,0.082c-0.024,0.02 -0.052,0.03 -0.083,0.03Z" style="fill:#606060;fill-rule:nonzero;"/></g><g transform="matrix(50,0,0,50,1837.447421,671.019834)"><path d="M0.163,-0.499c0.024,0 0.047,0.023 0.068,0.069c0.031,-0.033 0.07,-0.049 0.117,-0.049c0.046,0 0.081,0.01 0.104,0.031c0.023,0.02 0.035,0.049 0.035,0.086c-0,0.037 -0.005,0.075 -0.014,0.112c-0.01,0.038 -0.017,0.065 -0.021,0.081c-0.004,0.016 -0.007,0.03 -0.007,0.041c0,0.011 0.004,0.016 0.011,0.016c0.01,0 0.022,-0.006 0.037,-0.019c0.015,-0.013 0.029,-0.026 0.044,-0.042c0.015,-0.015 0.028,-0.029 0.04,-0.041c0.012,-0.013 0.021,-0.019 0.025,-0.019c0.009,0 0.014,0.011 0.014,0.034c0,0.047 -0.023,0.092 -0.069,0.135c-0.077,0.045 -0.127,0.068 -0.148,0.068c-0.002,-0 -0.003,-0 -0.004,-0.001c-0.053,0 -0.08,-0.043 -0.08,-0.128c0,-0.037 0.004,-0.07 0.011,-0.101c0.007,-0.031 0.012,-0.053 0.016,-0.067c0.003,-0.014 0.005,-0.028 0.005,-0.043c0,-0.024 -0.014,-0.036 -0.042,-0.036c-0.028,-0 -0.054,0.021 -0.079,0.061c-0.025,0.041 -0.042,0.083 -0.051,0.128l0,0.007c0,0.023 0.004,0.046 0.011,0.07c0.007,0.024 0.01,0.041 0.011,0.05c-0,0.023 -0.028,0.045 -0.085,0.067c-0.009,0.003 -0.016,0.005 -0.023,0.005c-0.017,0 -0.028,-0.009 -0.034,-0.026c-0.006,-0.017 -0.009,-0.044 -0.01,-0.081c0,-0.095 0.004,-0.163 0.011,-0.205c0.01,-0.063 0.033,-0.121 0.068,-0.175c0.012,-0.019 0.025,-0.028 0.039,-0.028Z" style="fill:#606060;fill-rule:nonzero;"/></g><g transform="matrix(50,0,0,50,1864.297421,671.019834)"><path d="M0.074,-0.054c-0.008,-0.018 -0.013,-0.038 -0.016,-0.062c-0.003,-0.024 -0.005,-0.057 -0.005,-0.099c0,-0.043 0.008,-0.1 0.024,-0.173l-0.045,0c-0.008,0 -0.012,-0.003 -0.012,-0.01c0,-0.016 0.002,-0.029 0.005,-0.039c0.003,-0.01 0.01,-0.022 0.021,-0.036l0.024,0c0.009,0 0.019,-0 0.03,-0.001c0.032,-0.103 0.065,-0.154 0.098,-0.154c0.027,0.001 0.045,0.018 0.056,0.051c0.003,0.009 0.006,0.019 0.009,0.03l-0.041,0.072c0.047,0.001 0.076,0.002 0.088,0.002c0.012,0 0.019,0.001 0.02,0.004c0.001,0.002 0.002,0.006 0.002,0.011c0,0.012 -0.003,0.027 -0.009,0.045c-0.006,0.018 -0.012,0.027 -0.02,0.026l-0.1,-0.005c-0.014,0.081 -0.021,0.149 -0.021,0.202c-0,0.053 0.008,0.08 0.023,0.08c0.013,0 0.036,-0.011 0.069,-0.032c0.033,-0.021 0.057,-0.041 0.072,-0.06c0.015,-0.019 0.027,-0.029 0.036,-0.029c0.009,0 0.014,0.011 0.014,0.034c0,0.023 -0.008,0.046 -0.024,0.07c-0.016,0.024 -0.036,0.045 -0.06,0.065c-0.024,0.02 -0.051,0.036 -0.081,0.049c-0.03,0.013 -0.055,0.019 -0.078,0.019c-0.022,0 -0.039,-0.005 -0.05,-0.015c-0.012,-0.01 -0.021,-0.024 -0.029,-0.042Z" style="fill:#606060;fill-rule:nonzero;"/></g><g transform="matrix(50,0,0,50,1880.147421,671.019834)"><path d="M0.253,0.003c-0.095,0.001 -0.16,-0.035 -0.195,-0.107c-0.012,-0.025 -0.018,-0.057 -0.018,-0.096c0,-0.038 0.003,-0.079 0.01,-0.122c0.013,-0.087 0.039,-0.167 0.077,-0.24c0.019,-0.037 0.041,-0.069 0.065,-0.096c0.053,-0.059 0.111,-0.088 0.176,-0.087c0.029,0 0.051,0.008 0.068,0.023c0.016,0.016 0.025,0.038 0.025,0.068c0,0.029 -0.009,0.059 -0.026,0.089c-0.017,0.03 -0.039,0.06 -0.067,0.092c-0.027,0.032 -0.057,0.065 -0.089,0.1c-0.033,0.035 -0.065,0.072 -0.096,0.113l0,0.04c0,0.037 0.008,0.065 0.024,0.082c0.016,0.017 0.035,0.026 0.056,0.026c0.057,0 0.108,-0.028 0.152,-0.085c0.018,-0.023 0.032,-0.035 0.041,-0.035c0.009,0 0.014,0.011 0.014,0.034c0,0.023 -0.006,0.046 -0.019,0.07c-0.012,0.024 -0.029,0.045 -0.048,0.065c-0.02,0.02 -0.043,0.036 -0.069,0.049c-0.026,0.013 -0.053,0.019 -0.08,0.019Zm0.054,-0.537c0.014,-0.017 0.025,-0.033 0.033,-0.047c0.008,-0.014 0.012,-0.029 0.012,-0.044c0,-0.015 -0.005,-0.022 -0.016,-0.022c-0.023,0 -0.049,0.024 -0.078,0.072c-0.028,0.048 -0.05,0.111 -0.064,0.189c0.023,-0.035 0.044,-0.064 0.062,-0.087c0.019,-0.023 0.035,-0.044 0.049,-0.061Z" style="fill:#606060;fill-rule:nonzero;"/></g><g transform="matrix(50,0,0,50,1899.147421,671.019834)"><path d="M0.299,-0.073c-0.033,0.046 -0.078,0.069 -0.134,0.069c-0.045,0 -0.082,-0.009 -0.109,-0.028c-0.027,-0.019 -0.04,-0.049 -0.04,-0.09c0,-0.017 0.002,-0.033 0.007,-0.048c0.005,-0.015 0.013,-0.033 0.025,-0.054l0.029,-0.237c0.021,-0.016 0.049,-0.024 0.084,-0.024c0.03,0 0.047,0.02 0.051,0.06c0.001,0.012 0.002,0.026 0.002,0.042c0,0.016 -0.003,0.033 -0.008,0.051c-0.027,0.092 -0.04,0.154 -0.039,0.185c0,0.024 0.014,0.036 0.042,0.036c0.028,0 0.049,-0.009 0.062,-0.027c0.013,-0.018 0.025,-0.04 0.034,-0.067c0.017,-0.074 0.034,-0.135 0.048,-0.183c0.015,-0.048 0.024,-0.077 0.029,-0.086c0.007,-0.016 0.019,-0.024 0.038,-0.025c0.019,0.001 0.036,0.014 0.053,0.039c0.017,0.026 0.025,0.046 0.025,0.059c-0.001,0.047 -0.03,0.164 -0.087,0.353c0.043,-0.034 0.086,-0.076 0.129,-0.125c0.015,-0.017 0.027,-0.032 0.037,-0.043c0.01,-0.012 0.018,-0.018 0.024,-0.018c0.009,0 0.014,0.011 0.014,0.032c0,0.042 -0.023,0.091 -0.071,0.147c-0.047,0.056 -0.104,0.1 -0.172,0.131c-0.008,0.027 -0.017,0.052 -0.026,0.076c-0.009,0.024 -0.021,0.045 -0.036,0.063c-0.032,0.039 -0.081,0.058 -0.146,0.058c-0.044,0 -0.082,-0.013 -0.113,-0.038c-0.031,-0.025 -0.047,-0.057 -0.047,-0.095c0,-0.021 0.007,-0.038 0.022,-0.051c0.014,-0.013 0.034,-0.023 0.059,-0.031c0.025,-0.008 0.054,-0.016 0.088,-0.022c0.033,-0.006 0.069,-0.014 0.107,-0.023c0.009,-0.04 0.016,-0.069 0.019,-0.086Zm-0.136,0.27c0.031,-0 0.06,-0.027 0.085,-0.082c-0.024,0.005 -0.045,0.008 -0.064,0.01c-0.019,0.002 -0.035,0.005 -0.048,0.007c-0.027,0.004 -0.04,0.011 -0.039,0.021c0,0.013 0.007,0.023 0.023,0.032c0.015,0.009 0.03,0.013 0.043,0.012Z" style="fill:#606060;fill-rule:nonzero;"/></g></g></g><g transform="matrix(0.051632,0,0,0.051632,69.752943,127.768237)"><g><g transform="matrix(428.811839,0,0,428.811839,1451.098586,974.796593)"><path d="M0.08,-0.069c0,0.049 0.032,0.082 0.082,0.082c0.05,0 0.082,-0.033 0.082,-0.082l0,-0.225l0.248,0c0.043,0 0.077,-0.012 0.077,-0.063c0,-0.051 -0.034,-0.063 -0.077,-0.063l-0.248,0l0,-0.168l0.293,0c0.048,0 0.083,-0.014 0.083,-0.066c0,-0.052 -0.035,-0.066 -0.083,-0.066l-0.361,0c-0.058,0 -0.096,0.023 -0.096,0.096l0,0.555Z" style="fill:#606060;fill-rule:nonzero;"/></g><g transform="matrix(428.811839,0,0,428.811839,1721.250044,974.796593)"><path d="M0.066,-0.06c0,0.039 0.016,0.073 0.073,0.073c0.057,0 0.073,-0.034 0.073,-0.073l0,-0.403c0,-0.039 -0.016,-0.073 -0.073,-0.073c-0.057,0 -0.073,0.034 -0.073,0.073l0,0.403Zm-0.003,-0.601c0,0.042 0.034,0.076 0.076,0.076c0.042,0 0.076,-0.034 0.076,-0.076c0,-0.042 -0.034,-0.076 -0.076,-0.076c-0.042,0 -0.076,0.034 -0.076,0.076Z" style="fill:#606060;fill-rule:nonzero;"/></g><g transform="matrix(428.811839,0,0,428.811839,1840.459735,974.796593)"><path d="M0.058,-0.06c0,0.039 0.016,0.073 0.073,0.073c0.057,0 0.073,-0.034 0.073,-0.073l0,-0.241c0,-0.073 0.06,-0.115 0.111,-0.115c0.063,0 0.092,0.042 0.092,0.101l0,0.255c0,0.039 0.016,0.073 0.073,0.073c0.057,0 0.073,-0.034 0.073,-0.073l0,-0.284c0,-0.148 -0.096,-0.192 -0.184,-0.192c-0.083,0 -0.136,0.038 -0.177,0.092l-0.002,0l0,-0.019c0,-0.044 -0.02,-0.073 -0.066,-0.073c-0.046,0 -0.066,0.029 -0.066,0.073l0,0.403Z" style="fill:#606060;fill-rule:nonzero;"/></g><g transform="matrix(428.811839,0,0,428.811839,2102.463769,974.796593)"><path d="M0.543,-0.386c0,-0.105 -0.097,-0.15 -0.237,-0.15c-0.15,0 -0.232,0.074 -0.232,0.132c-0,0.03 0.025,0.056 0.062,0.056c0.058,0 0.061,-0.08 0.169,-0.08c0.049,0 0.092,0.018 0.092,0.06c0,0.042 -0.028,0.05 -0.063,0.054l-0.089,0.01c-0.112,0.013 -0.204,0.047 -0.204,0.168c-0,0.092 0.082,0.149 0.165,0.149c0.077,-0 0.143,-0.022 0.2,-0.085c0.002,0.045 0.023,0.085 0.086,0.085c0.035,0 0.066,-0.023 0.066,-0.056c0,-0.023 -0.015,-0.037 -0.015,-0.098l0,-0.245Zm-0.146,0.197c0,0.054 -0.049,0.106 -0.129,0.106c-0.05,0 -0.081,-0.027 -0.081,-0.06c0,-0.044 0.033,-0.063 0.094,-0.072l0.053,-0.008c0.017,-0.003 0.047,-0.008 0.063,-0.023l0,0.057Z" style="fill:#606060;fill-rule:nonzero;"/></g><g transform="matrix(428.811839,0,0,428.811839,2364.467802,974.796593)"><path d="M0.058,-0.06c0,0.039 0.016,0.073 0.073,0.073c0.057,0 0.073,-0.034 0.073,-0.073l0,-0.241c0,-0.073 0.06,-0.115 0.111,-0.115c0.063,0 0.092,0.042 0.092,0.101l0,0.255c0,0.039 0.016,0.073 0.073,0.073c0.057,0 0.073,-0.034 0.073,-0.073l0,-0.284c0,-0.148 -0.096,-0.192 -0.184,-0.192c-0.083,0 -0.136,0.038 -0.177,0.092l-0.002,0l0,-0.019c0,-0.044 -0.02,-0.073 -0.066,-0.073c-0.046,0 -0.066,0.029 -0.066,0.073l0,0.403Z" style="fill:#606060;fill-rule:nonzero;"/></g><g transform="matrix(428.811839,0,0,428.811839,2626.471835,974.796593)"><path d="M0.03,-0.251c0,0.153 0.085,0.264 0.265,0.264c0.15,-0 0.222,-0.088 0.222,-0.152c0,-0.029 -0.024,-0.056 -0.061,-0.056c-0.077,0 -0.055,0.094 -0.157,0.094c-0.08,0 -0.123,-0.059 -0.123,-0.15c0,-0.132 0.067,-0.171 0.124,-0.171c0.105,0 0.08,0.086 0.149,0.086c0.037,0 0.068,-0.021 0.068,-0.063c0,-0.068 -0.091,-0.137 -0.213,-0.137c-0.179,0 -0.274,0.117 -0.274,0.285Z" style="fill:#606060;fill-rule:nonzero;"/></g><g transform="matrix(428.811839,0,0,428.811839,2856.743793,974.796593)"><path d="M0.066,-0.06c0,0.039 0.016,0.073 0.073,0.073c0.057,0 0.073,-0.034 0.073,-0.073l0,-0.403c0,-0.039 -0.016,-0.073 -0.073,-0.073c-0.057,0 -0.073,0.034 -0.073,0.073l0,0.403Zm-0.003,-0.601c0,0.042 0.034,0.076 0.076,0.076c0.042,0 0.076,-0.034 0.076,-0.076c0,-0.042 -0.034,-0.076 -0.076,-0.076c-0.042,0 -0.076,0.034 -0.076,0.076Z" style="fill:#606060;fill-rule:nonzero;"/></g><g transform="matrix(428.811839,0,0,428.811839,2975.953484,974.796593)"><path d="M0.543,-0.386c0,-0.105 -0.097,-0.15 -0.237,-0.15c-0.15,0 -0.232,0.074 -0.232,0.132c-0,0.03 0.025,0.056 0.062,0.056c0.058,0 0.061,-0.08 0.169,-0.08c0.049,0 0.092,0.018 0.092,0.06c0,0.042 -0.028,0.05 -0.063,0.054l-0.089,0.01c-0.112,0.013 -0.204,0.047 -0.204,0.168c-0,0.092 0.082,0.149 0.165,0.149c0.077,-0 0.143,-0.022 0.2,-0.085c0.002,0.045 0.023,0.085 0.086,0.085c0.035,0 0.066,-0.023 0.066,-0.056c0,-0.023 -0.015,-0.037 -0.015,-0.098l0,-0.245Zm-0.146,0.197c0,0.054 -0.049,0.106 -0.129,0.106c-0.05,0 -0.081,-0.027 -0.081,-0.06c0,-0.044 0.033,-0.063 0.094,-0.072l0.053,-0.008c0.017,-0.003 0.047,-0.008 0.063,-0.023l0,0.057Z" style="fill:#606060;fill-rule:nonzero;"/></g><g transform="matrix(428.811839,0,0,428.811839,3237.957517,974.796593)"><path d="M0.066,-0.06c0,0.048 0.029,0.073 0.073,0.073c0.044,0 0.073,-0.025 0.073,-0.073l0,-0.6c0,-0.048 -0.029,-0.073 -0.073,-0.073c-0.044,0 -0.073,0.025 -0.073,0.073l0,0.6Z" style="fill:#606060;fill-rule:nonzero;"/></g><g transform="matrix(428.811839,0,0,428.811839,3488.383631,974.796593)"><path d="M0.03,-0.251c0,0.153 0.085,0.264 0.265,0.264c0.15,-0 0.222,-0.088 0.222,-0.152c0,-0.029 -0.024,-0.056 -0.061,-0.056c-0.077,0 -0.055,0.094 -0.157,0.094c-0.08,0 -0.123,-0.059 -0.123,-0.15c0,-0.132 0.067,-0.171 0.124,-0.171c0.105,0 0.08,0.086 0.149,0.086c0.037,0 0.068,-0.021 0.068,-0.063c0,-0.068 -0.091,-0.137 -0.213,-0.137c-0.179,0 -0.274,0.117 -0.274,0.285Z" style="fill:#606060;fill-rule:nonzero;"/></g><g transform="matrix(428.811839,0,0,428.811839,3718.655588,974.796593)"><path d="M0.182,-0.262c0,-0.095 0.039,-0.166 0.124,-0.166c0.085,0 0.124,0.071 0.124,0.166c0,0.089 -0.037,0.167 -0.124,0.167c-0.087,0 -0.124,-0.078 -0.124,-0.167Zm-0.146,0c0,0.146 0.071,0.275 0.27,0.275c0.199,-0 0.27,-0.129 0.27,-0.275c0,-0.154 -0.094,-0.274 -0.27,-0.274c-0.176,0 -0.27,0.12 -0.27,0.274Z" style="fill:#606060;fill-rule:nonzero;"/></g><g transform="matrix(428.811839,0,0,428.811839,3981.088433,974.796593)"><path d="M0.058,-0.06c0,0.039 0.016,0.073 0.073,0.073c0.057,0 0.073,-0.034 0.073,-0.073l0,-0.241c0,-0.073 0.06,-0.115 0.111,-0.115c0.063,0 0.092,0.042 0.092,0.101l0,0.255c0,0.039 0.016,0.073 0.073,0.073c0.057,0 0.073,-0.034 0.073,-0.073l0,-0.284c0,-0.148 -0.096,-0.192 -0.184,-0.192c-0.083,0 -0.136,0.038 -0.177,0.092l-0.002,0l0,-0.019c0,-0.044 -0.02,-0.073 -0.066,-0.073c-0.046,0 -0.066,0.029 -0.066,0.073l0,0.403Z" style="fill:#606060;fill-rule:nonzero;"/></g><g transform="matrix(428.811839,0,0,428.811839,4243.092467,974.796593)"><path d="M0.096,-0.117c0,0.086 0.044,0.13 0.15,0.13c0.07,0 0.106,-0.023 0.106,-0.065c0,-0.031 -0.019,-0.049 -0.051,-0.049l-0.021,0c-0.026,0 -0.038,-0.012 -0.038,-0.034l0,-0.292l0.044,0c0.043,0 0.066,-0.013 0.066,-0.048c0,-0.035 -0.023,-0.048 -0.066,-0.048l-0.044,0l0,-0.089c0,-0.048 -0.029,-0.073 -0.073,-0.073c-0.044,0 -0.073,0.025 -0.073,0.073l0,0.089l-0.025,0c-0.041,0 -0.058,0.016 -0.058,0.048c0,0.032 0.017,0.048 0.058,0.048l0.025,0l0,0.31Z" style="fill:#606060;fill-rule:nonzero;"/></g><g transform="matrix(428.811839,0,0,428.811839,4401.752847,974.796593)"><path d="M0.066,-0.06c0,0.039 0.016,0.073 0.073,0.073c0.057,0 0.073,-0.034 0.073,-0.073l0,-0.17c0,-0.121 0.032,-0.162 0.091,-0.162l0.026,0c0.036,0 0.072,-0.019 0.072,-0.073c0,-0.041 -0.034,-0.071 -0.08,-0.071c-0.071,0 -0.104,0.063 -0.121,0.124l-0.002,0l0,-0.056c0,-0.044 -0.029,-0.068 -0.066,-0.068c-0.037,0 -0.066,0.024 -0.066,0.068l0,0.408Z" style="fill:#606060;fill-rule:nonzero;"/></g><g transform="matrix(428.811839,0,0,428.811839,4571.133523,974.796593)"><path d="M0.182,-0.262c0,-0.095 0.039,-0.166 0.124,-0.166c0.085,0 0.124,0.071 0.124,0.166c0,0.089 -0.037,0.167 -0.124,0.167c-0.087,0 -0.124,-0.078 -0.124,-0.167Zm-0.146,0c0,0.146 0.071,0.275 0.27,0.275c0.199,-0 0.27,-0.129 0.27,-0.275c0,-0.154 -0.094,-0.274 -0.27,-0.274c-0.176,0 -0.27,0.12 -0.27,0.274Z" style="fill:#606060;fill-rule:nonzero;"/></g><g transform="matrix(428.811839,0,0,428.811839,4833.566368,974.796593)"><path d="M0.066,-0.06c0,0.048 0.029,0.073 0.073,0.073c0.044,0 0.073,-0.025 0.073,-0.073l0,-0.6c0,-0.048 -0.029,-0.073 -0.073,-0.073c-0.044,0 -0.073,0.025 -0.073,0.073l0,0.6Z" style="fill:#606060;fill-rule:nonzero;"/></g></g></g></svg>